<svg width="16" height="16" viewBox="0 0 16 16" fill="none" xmlns="http://www.w3.org/2000/svg">
<rect width="16" height="16" fill="#333333" fill-opacity="0.01"/>
<path d="M5 2.25V1.25C5 0.973858 5.22386 0.75 5.5 0.75H10.5C10.7761 0.75 11 0.973858 11 1.25V2.25M5 2.25V2.5C5 2.77614 5.22386 3 5.5 3H10.5C10.7761 3 11 2.77614 11 2.5V2.25M5 2.25H3C2.44772 2.25 2 2.69772 2 3.25V14C2 14.5523 2.44772 15 3 15H13C13.5523 15 14 14.5523 14 14V3.25C14 2.69772 13.5523 2.25 13 2.25H11M5 6H11M5 9H11M5 12H11" stroke="#333333" stroke-width="1.2" stroke-linecap="round" stroke-linejoin="round"/>
</svg>